<?xml version="1.0" encoding="UTF-8" standalone="no"?>
<!-- Created with Inkscape (http://www.inkscape.org/) -->

<svg
   width="52.916668mm"
   height="52.916668mm"
   viewBox="0 0 52.916668 52.916668"
   version="1.1"
   id="svg5"
   inkscape:version="1.1 (ce6663b3b7, 2021-05-25)"
   sodipodi:docname="cgc.svg"
   xmlns:inkscape="http://www.inkscape.org/namespaces/inkscape"
   xmlns:sodipodi="http://sodipodi.sourceforge.net/DTD/sodipodi-0.dtd"
   xmlns="http://www.w3.org/2000/svg"
   xmlns:svg="http://www.w3.org/2000/svg">
  <sodipodi:namedview
     id="namedview7"
     pagecolor="#505050"
     bordercolor="#eeeeee"
     borderopacity="1"
     inkscape:pageshadow="0"
     inkscape:pageopacity="0"
     inkscape:pagecheckerboard="0"
     inkscape:document-units="mm"
     showgrid="false"
     inkscape:zoom="2.6832492"
     inkscape:cx="163.23493"
     inkscape:cy="118.51303"
     inkscape:window-width="1920"
     inkscape:window-height="995"
     inkscape:window-x="0"
     inkscape:window-y="0"
     inkscape:window-maximized="1"
     inkscape:current-layer="layer1" />
  <defs
     id="defs2" />
  <g
     inkscape:label="Layer 1"
     inkscape:groupmode="layer"
     id="layer1"
     transform="translate(-16.139277,-100.15123)">
    <path
       style="fill:#8e1e21;fill-opacity:1;stroke-width:0.264583"
       d="m 26.193444,126.60956 v -26.45833 h 16.139584 16.139583 v 26.45833 26.45834 H 42.333028 26.193444 Z m 31.685151,0.0661 0.06744,-25.99531 H 42.334324 26.722611 v 26.06357 26.06358 l 15.544271,-0.0683 15.544271,-0.0683 z m -28.986401,24.2226 c -0.24225,-0.24225 -0.3175,-5.97238 -0.3175,-24.17698 0,-21.86619 0.03653,-23.88981 0.437316,-24.2226 0.352887,-0.29302 2.76,-0.38039 12.468194,-0.45257 6.616983,-0.0492 12.429019,-0.0148 12.915636,0.0765 1.823191,0.34203 1.695521,-1.51007 1.695521,24.59705 0,22.54695 -0.02199,23.6402 -0.483854,24.05818 -0.436367,0.39491 -1.755523,0.43788 -13.440834,0.43788 -9.724873,0 -13.036179,-0.0792 -13.274479,-0.3175 z M 55.143679,150.526 c 0.377309,-0.14479 0.418516,-2.48776 0.418516,-23.79689 0,-14.36388 -0.09698,-23.69622 -0.247198,-23.78906 -0.334497,-0.20673 -25.612691,-0.21708 -25.946745,-0.0106 -0.298114,0.18425 -0.385225,47.28357 -0.088,47.58079 0.220388,0.22039 25.290371,0.23569 25.863429,0.0158 z m -17.257806,-1.96252 c -1.734937,-1.05777 -2.380453,-4.04113 -1.462549,-6.75944 0.324555,-0.96115 0.933124,-1.79449 2.315104,-3.17019 2.095812,-2.08629 3.213554,-2.71436 5.248391,-2.94913 1.487244,-0.17159 1.775375,-0.39058 1.781741,-1.35416 l 0.004,-0.61333 -0.811897,0.57812 c -1.116084,0.79473 -2.655326,0.74337 -3.979267,-0.13278 -0.566317,-0.37477 -1.029666,-0.7962 -1.029666,-0.93652 0,-0.14032 -0.927241,-1.18737 -2.060534,-2.32677 -2.648289,-2.66256 -3.231133,-4.03356 -3.231133,-7.60042 0,-1.35839 0.135151,-3.05532 0.300336,-3.77094 0.279465,-1.21071 0.251886,-1.38379 -0.396875,-2.49082 -1.43042,-2.44083 -0.640714,-5.87225 1.946963,-8.45993 1.597206,-1.5972 3.288666,-2.34057 5.325733,-2.34057 0.547083,0 1.06968,-0.12133 1.161327,-0.26962 0.417687,-0.67583 2.799765,-1.58244 4.155284,-1.58148 2.877587,0.002 4.058362,1.68158 3.409371,4.8495 -1.071727,5.23142 -5.48711,9.35578 -10.590078,9.89207 l -1.963981,0.2064 -0.381652,1.5875 c -0.621334,2.58447 -0.546353,5.57438 0.179152,7.14375 l 0.611573,1.32292 0.612492,-2.08424 c 0.80411,-2.73628 2.06188,-5.17469 3.261573,-6.32314 2.231824,-2.13649 5.428131,-2.99087 6.549129,-1.75059 0.80238,0.88776 0.68758,3.42162 -0.241012,5.3196 -0.807344,1.65015 -3.748741,4.9666 -5.451499,6.14661 -1.227731,0.85082 -1.389532,1.60455 -0.437555,2.0383 1.00117,0.45617 1.73789,0.11666 4.002077,-1.84427 3.943845,-3.41564 4.297006,-3.1991 2.495659,1.53024 -0.579845,1.52236 -1.054267,2.9586 -1.054267,3.19164 0,0.23305 0.351695,0.76067 0.781542,1.17249 1.060146,1.01568 1.599708,2.24233 1.599708,3.63678 0,1.17077 -0.341818,1.79887 -0.978958,1.79887 -0.245973,0 -0.343958,-0.47679 -0.343958,-1.67367 0,-1.41465 -0.09622,-1.76407 -0.621748,-2.25777 -0.757671,-0.7118 -0.953944,-0.52286 -1.610394,1.55019 -1.209852,3.82069 -3.842229,7.90008 -5.726626,8.87454 -1.03911,0.53735 -2.335117,0.47972 -3.367554,-0.14974 z m 2.51809,-1.44215 c 1.663311,-0.47718 4.310315,-6.15821 4.310315,-9.25086 0,-0.68114 -0.0652,-0.73073 -0.774277,-0.58891 -2.395409,0.47908 -5.02967,2.55546 -6.218544,4.90159 -1.122518,2.21518 -0.796954,4.45116 0.737277,5.06363 0.55782,0.22268 0.782158,0.20821 1.945229,-0.12545 z m 4.173509,-18.99046 c 3.650266,-3.75915 4.946513,-9.40533 1.783792,-7.76983 -2.245977,1.16144 -4.821986,5.65241 -4.821986,8.40656 0,0.92905 0.06188,1.01691 0.716223,1.01691 0.530898,0 1.131714,-0.42788 2.321971,-1.65364 z m -1.794618,-11.16886 c 2.90164,-1.32841 5.531982,-4.59466 6.555298,-8.14009 0.370335,-1.28308 0.38409,-1.62681 0.08962,-2.23947 -0.607258,-1.26343 -3.101975,-1.49001 -4.443111,-0.40355 -0.560554,0.4541 -0.55962,0.45613 0.907161,1.97031 0.973384,1.00483 1.468292,1.73531 1.468292,2.16719 0,1.28504 -0.741257,0.96937 -1.553498,-0.66157 -0.359548,-0.72195 -1.564331,-1.56615 -2.235102,-1.56615 -0.883442,0 -3.153804,3.84378 -4.11877,6.97318 -0.851983,2.76299 -0.812202,2.92299 0.676018,2.71901 0.679423,-0.0931 1.873765,-0.46161 2.654095,-0.81886 z m -5.349924,-3.96213 c 0.518582,-1.15514 1.410194,-2.71922 1.981359,-3.47572 0.571165,-0.7565 0.970788,-1.44315 0.888052,-1.52589 -0.281226,-0.28122 -2.745542,1.16247 -3.822373,2.2393 -1.906004,1.90601 -2.454399,4.41761 -1.245526,5.70439 l 0.606618,0.64572 0.324496,-0.74377 c 0.178473,-0.40907 0.748791,-1.68889 1.267374,-2.84403 z"
       id="path163" />
  </g>
</svg>
